# xmcd CD database file
#
# Track frame offsets:
#	150
#	15147
#	31160
#	41607
#	57647
#	76150
#	95007
#	114460
#	132152
#	151162
#
# Disc length: 2303 seconds
#
# Revision: 0
# Processed by: cddbd v1.5.1PL2 Copyright (c) Steve Scherf et al.
# Submitted via: CDex 1.51
#
DISCID=6e08fd0a
DTITLE=Eiji Kitamura - Swingin' Age Part 1
DYEAR=1983
DGENRE=Jazz
TTITLE0=On the Sunny Side Of The Street
TTITLE1=Memories Of You
TTITLE2=Pitite Fleur
TTITLE3=I Surrender Dear
TTITLE4=Rose Room
TTITLE5=Shine
TTITLE6=After You've Gone
TTITLE7=Where Or When
TTITLE8=Tea For Two
TTITLE9=Star Dust
EXTD=YEAR: 1983
EXTT0=
EXTT1=
EXTT2=
EXTT3=
EXTT4=
EXTT5=
EXTT6=
EXTT7=
EXTT8=
EXTT9=
PLAYORDER=
